<svg xmlns="http://www.w3.org/2000/svg" width="512" height="158"><g stroke-width=".265" style="font-variant-ligatures:normal;font-variant-caps:normal;font-variant-numeric:normal;font-variant-east-asian:normal" aria-label="Barberos"><path style="font-style:normal;font-variant:normal;font-weight:400;font-stretch:normal;font-size:22.5778px;line-height:1.25;font-family:'JetBrains Mono';-inkscape-font-specification:'JetBrains Mono';letter-spacing:0;word-spacing:0;fill:#000;fill-opacity:1;stroke:none;stroke-width:.825697" d="M-37.724 177.69c-2.623 0-4.912-.497-6.867-1.49-1.911-.943-3.356-2.358-4.333-4.244-.978-1.837-1.356-4.046-1.134-6.628l1-12.213c.223-2.63-.11-4.517-1-5.66-.889-1.19-2.778-1.786-5.666-1.786v-5.958s4.777-.57 5.666-1.713c.89-1.191 1.223-3.102 1-5.734l-1-12.212c-.222-2.632.156-4.866 1.134-6.703.977-1.836 2.422-3.227 4.333-4.17 1.955-.993 4.244-1.49 6.867-1.49h3v5.958h-3c-2.09 0-3.712.546-4.867 1.639-1.156 1.042-1.645 2.63-1.467 4.766l1 12.212c.267 3.227-.4 5.76-2 7.596-1.6 1.787-3.822 2.68-6.666 2.68v-.371c2.8 0 5 1.017 6.6 3.053 1.644 2.035 2.333 4.666 2.066 7.893l-1 12.213c-.177 2.135.311 3.724 1.467 4.766 1.155 1.092 2.778 1.638 4.867 1.638h3v5.958zM-29.724 177.69c2.622 0 4.91-.497 6.866-1.49 1.911-.943 3.356-2.358 4.334-4.244.977-1.837 1.355-4.046 1.133-6.628l-1-12.213c-.222-2.63.111-4.517 1-5.66.889-1.19 2.778-1.786 5.667-1.786v-5.958s-4.778-.57-5.667-1.713c-.889-1.191-1.222-3.102-1-5.734l1-12.212c.222-2.632-.156-4.866-1.133-6.703-.978-1.836-2.423-3.227-4.334-4.17-1.955-.993-4.244-1.49-6.866-1.49h-3v5.958h3c2.089 0 3.71.546 4.866 1.639 1.156 1.042 1.645 2.63 1.467 4.766l-1 12.212c-.267 3.227.4 5.76 2 7.596 1.6 1.787 3.822 2.68 6.667 2.68v-.371c-2.8 0-5 1.017-6.6 3.053-1.645 2.035-2.334 4.666-2.067 7.893l1 12.213c.178 2.135-.311 3.724-1.467 4.766-1.155 1.092-2.777 1.638-4.866 1.638h-3v5.958z" transform="matrix(1.67378 0 0 1.71129 93.27 -164.9)"/><path style="fill:#cf0000;fill-opacity:1;stroke:#cf0000;stroke-width:.222797;stroke-linecap:square;stroke-miterlimit:4;stroke-dasharray:none;stroke-opacity:1" d="M-25.833 169.557v-7.688l-15.503 7.61zM-41.613 115.802v7.688l15.504-7.61z" transform="matrix(1.67378 0 0 1.71129 93.27 -164.9)"/><path style="fill:#cf0000;fill-opacity:1;stroke:#cf0000;stroke-width:.226331;stroke-linecap:square;stroke-miterlimit:4;stroke-dasharray:none;stroke-opacity:1" d="M-41.611 142.68v7.798l15.773-7.72-.068-7.877z" transform="matrix(1.67378 0 0 1.71129 93.27 -164.9)"/><path style="fill:#0000cf;fill-opacity:1;stroke:#0000cf;stroke-width:.226331;stroke-linecap:square;stroke-miterlimit:4;stroke-dasharray:none;stroke-opacity:1" d="M-41.611 129.184v7.799l15.773-7.72-.068-7.877zM-41.611 156.175v7.798l15.773-7.72-.068-7.876z" transform="matrix(1.67378 0 0 1.71129 93.27 -164.9)"/><path d="M45.36 255.79h4.266c4.704 0 8.531 3.826 8.531 8.53v6.537c0 4.704-3.827 8.531-8.53 8.531H32.563l-7.573 2.55c0 1.594-.558 3.188-1.595 4.384l-.478.558h26.709c8.85 0 16.025-7.175 16.025-16.025v-6.537c0-4.943-2.232-9.328-5.74-12.278 3.508-2.95 5.74-7.335 5.74-12.278v-6.537c0-8.85-7.176-16.105-16.025-16.105H22.918l.478.638c1.037 1.196 1.595 2.79 1.595 4.385l7.573 2.552h17.062c4.704 0 8.531 3.827 8.531 8.53v6.538c0 4.704-3.827 8.53-8.53 8.53H45.36" style="font-variant-ligatures:normal;font-variant-caps:normal;font-variant-numeric:normal;font-variant-east-asian:normal" transform="matrix(2.25594 0 0 2.25674 -25.545 -489.416)"/><path d="m147.316 137.258 10.6-41.75 10.602 41.75zm-5.443-20.254c.095-.477.477-.669.86-.573.381.095.572.573.477 1.05-.096.383-.478.67-.86.574-.382-.191-.668-.669-.477-1.05zm31.323-.573c.382-.095.764.095.86.573.095.382-.096.86-.478 1.051-.382.096-.764-.191-.86-.573-.095-.478.096-.955.478-1.051zm8.977 38.597-6.876-27.036c-.477-4.777-.477-8.025.382-11.56-2.387-2.388-3.915-5.158-5.73-9.457l-7.64-30.189 1.624-2.388h-11.938l1.623 2.388-7.64 30.189c-1.814 4.299-3.342 7.07-5.73 9.458.86 3.534.86 6.783.382 11.56l-6.876 27.035-2.101 2.962h12.702l-1.528-2.962 2.005-7.93h26.264l2.005 7.93-1.528 2.962h12.702zM202.102 111.757v-28.28h14.611c5.73 0 10.315 4.586 10.315 10.223v7.834c0 5.54-4.49 10.126-10.028 10.222h-7.45zm-10.219 5.35a.856.856 0 0 1-.86-.86c0-.478.382-.86.86-.86.477 0 .86.382.86.86 0 .477-.383.86-.86.86zm44.981 36.017-14.23-33.34c1.528-.479 3.056-1.147 4.393-2.007a19.153 19.153 0 0 0 8.977-16.241v-7.834c0-6.879-3.629-12.897-8.977-16.241-2.96-1.91-6.494-2.962-10.314-2.962h-26.166l.573.67c1.241 1.432 1.91 3.343 1.91 5.254v23.788c-.86 5.35-1.72 8.693-3.916 12.037 2.197 3.44 3.056 6.783 3.916 12.133v26.655l-2.484 2.961h13.084l-.382-.478a8.878 8.878 0 0 1-1.146-4.394v-32.387h11.27l15.757 37.26h12.606zM290.196 101.534c0 5.636-4.584 10.222-10.219 10.222H259.54v-28.28h20.437c5.635 0 10.22 4.586 10.22 10.223zm0 37.258c0 5.637-4.584 10.223-10.219 10.223H259.54v-28.28h20.437c5.635 0 10.22 4.586 10.22 10.223zm-40.875-21.686a.856.856 0 0 1-.86-.86c0-.478.382-.86.86-.86.477 0 .86.382.86.86s-.383.86-.86.86zm49.851-15.572V93.7c0-10.605-8.595-19.298-19.195-19.298h-31.994l.573.764c1.241 1.433 1.91 3.344 1.91 5.254v23.694c-.86 5.35-1.719 8.693-3.916 12.133 2.197 3.439 3.056 6.783 3.916 12.133v23.693c0 1.91-.669 3.822-1.91 5.255l-.573.668h31.994c10.6 0 19.195-8.598 19.195-19.202v-7.834c0-5.923-2.674-11.178-6.876-14.712 4.202-3.535 6.876-8.79 6.876-14.713zM306.777 117.105a.856.856 0 0 1-.86-.86c0-.477.383-.86.86-.86.478 0 .86.383.86.86 0 .478-.382.86-.86.86zm10.219 31.908v-28.28h18.336l-3.438-8.98h-14.898V83.475h22.729l-2.96-9.075H305.44l.573.668a8.532 8.532 0 0 1 1.91 5.35v23.694c-.86 5.35-1.719 8.693-3.915 12.133 2.196 3.344 3.056 6.783 3.915 12.133v23.693c0 1.91-.668 3.822-1.91 5.255l-.573.668h34.286l-2.96-8.98zM357.649 111.757v-28.28h14.611c5.73 0 10.314 4.586 10.314 10.223v7.834c0 5.54-4.488 10.126-10.027 10.222h-7.45zm-10.22 5.35a.856.856 0 0 1-.859-.86c0-.478.382-.86.86-.86.477 0 .86.382.86.86 0 .477-.383.86-.86.86zm44.982 36.017-14.23-33.34c1.528-.479 3.056-1.147 4.393-2.007a19.153 19.153 0 0 0 8.977-16.241v-7.834c0-6.879-3.629-12.897-8.977-16.241-2.96-1.91-6.494-2.962-10.314-2.962h-26.167l.574.67c1.241 1.432 1.91 3.343 1.91 5.254v23.788c-.86 5.35-1.72 8.693-3.916 12.037 2.196 3.44 3.056 6.783 3.916 12.133v26.655l-2.484 2.961h13.084l-.382-.478a8.878 8.878 0 0 1-1.146-4.394v-32.387h11.27l15.757 37.26h12.606zM451.97 117.105a.856.856 0 0 1-.86-.86c0-.477.382-.86.86-.86.477 0 .859.383.859.86 0 .478-.382.86-.86.86zm-10.22 21.4c0 5.732-4.679 10.413-10.505 10.413h-5.634c-5.826 0-10.505-4.68-10.505-10.413V93.986c0-5.732 4.68-10.413 10.505-10.413h5.634c5.826 0 10.506 4.681 10.506 10.413zm-36.864-21.4a.856.856 0 0 1-.86-.86c0-.477.383-.86.86-.86.478 0 .86.383.86.86 0 .478-.382.86-.86.86zm45.936-12.993V93.986c0-10.796-8.786-19.585-19.578-19.585h-5.73v.095c-10.696 0-19.482 8.79-19.482 19.49v10.126c-.86 5.35-1.72 8.694-3.916 12.133 2.197 3.44 3.056 6.783 3.916 12.133v10.127c0 10.7 8.69 19.489 19.482 19.489h5.73c10.792 0 19.578-8.694 19.578-19.49v-10.126c.86-5.35 1.719-8.693 3.915-12.133-2.196-3.439-3.056-6.783-3.915-12.133zM483.35 121.506c-.287.382-.765.477-1.147.19-.382-.286-.573-.763-.286-1.146a.911.911 0 0 1 1.146-.286c.382.286.478.764.287 1.242zm4.87-10.51c.287-.381.764-.477 1.146-.19a.912.912 0 0 1 .287 1.146c-.287.382-.86.478-1.242.287-.382-.287-.477-.765-.191-1.242zm15.185 11.465-4.966-3.344c-4.011-3.726-6.399-6.21-7.927-9.936-4.106 0-7.354-1.146-12.32-3.439l-5.061-3.248c-2.865-1.91-4.584-5.063-4.584-8.503 0-5.732 4.775-10.413 10.505-10.413h13.37c4.584 0 8.595 2.962 9.932 7.07l-1.719 1.815h11.27c-.765-10.031-9.169-18.056-19.483-18.056h-13.37c-10.792 0-19.482 8.79-19.482 19.584 0 6.497 3.151 12.516 8.595 16.05l4.966 3.248c4.01 3.822 6.303 6.306 7.926 10.032 4.107 0 7.354 1.146 12.32 3.439l5.062 3.248c2.77 1.91 4.488 5.064 4.488 8.503 0 5.732-4.68 10.413-10.505 10.413h-13.37a10.428 10.428 0 0 1-9.837-6.974l1.815-2.006h-11.46c.764 10.126 9.263 18.056 19.482 18.056h13.37c10.792 0 19.578-8.694 19.578-19.49 0-6.496-3.247-12.514-8.595-16.05z"/></g></svg>