<svg viewBox="0 0 512 512" xml:space="preserve" xmlns="http://www.w3.org/2000/svg"><linearGradient id="a" x1="256" x2="256" y1="511" y2="1" gradientUnits="userSpaceOnUse"><stop stop-color="#cf0000" offset="0"/><stop stop-color="#0000cf" offset="1"/></linearGradient><path d="M181.72 366.81a10.002 10.002 0 0 0-2.208-.362c10.954-11.513 17.7-27.066 17.7-44.174-.01-29.663.034-21.54.038-48.966 0-28.227-23.086-51.308-51.315-51.26l-25.796.044c-28.245.049-51.223 22.98-51.223 51.223v48.958c0 17.108 6.745 32.661 17.7 44.174a9.984 9.984 0 0 0-2.206.362C37.153 371.09 0 410.92 0 459.271v42.724c0 5.523 4.477 10 10 10h246.13c5.523 0 10-4.477 10-10v-42.724c0-48.35-37.151-88.182-84.407-92.462zm-92.804-93.495c0-17.216 14.007-31.2 31.223-31.223l25.803-.034c17.215-.023 31.107 14.032 31.177 31.255l.094 23.309v25.652c0 24.343-19.805 44.148-44.148 44.148s-44.148-19.805-44.148-44.148v-25.635zm157.21 218.68H19.996v-20l.365-20c3.359-33.716 29.806-60.717 63.255-64.969 49.228-.63 49.228-.63 98.888 0 35.824 4.553 63.62 35.204 63.62 72.245zM336.33 269.9h-70.46v-32.722c0-37.041 27.795-67.692 63.619-72.245 50.932-.655 50.932-.655 98.888 0 35.826 4.554 63.621 35.204 63.621 72.245v32.723h-73.667zm82.001 20.001h83.667c5.523 0 10-4.477 10-10v-42.723c0-48.35-37.151-88.181-84.405-92.462a10.01 10.01 0 0 0-2.21-.362c10.954-11.513 17.699-27.066 17.699-44.174.113-31.678.053-19.506.039-48.963 0-28.227-23.03-51.219-51.254-51.219h-25.858c-28.245 0-51.223 22.979-51.223 51.223v48.958c0 17.108 6.745 32.661 17.699 44.174a10.02 10.02 0 0 0-2.21.362c-47.255 4.281-84.405 44.112-84.405 92.462V279.9c0 5.523 4.477 10 10 10h80.46zm-83.544-238.68c0-17.216 14.007-31.202 31.223-31.223l25.889-.031c17.219-.021 31.184 14.03 31.184 31.25v48.962c0 24.343-19.805 44.148-44.148 44.148s-44.148-19.804-44.148-44.147z" fill="url(#a)"/><path d="m267.4 139.93-41.821-41.821V50.001c0-27.57-22.43-50-50-50H49.999c-27.57 0-50 22.43-50 50v88c0 27.57 22.43 50 50 50h125.58c20.674 0 38.702-12.407 46.266-31h38.484a10.002 10.002 0 0 0 7.072-17.071zm-52.851-2.929a10 10 0 0 0-9.746 7.758c-3.148 13.684-15.165 23.242-29.225 23.242H49.998c-16.542 0-30-13.458-30-30v-88c0-16.542 13.458-30 30-30h125.58c16.542 0 30 13.458 30 30v52.25c0 2.652 1.054 5.196 2.929 7.071l27.679 27.679h-21.637zM462 324H336.42c-20.674 0-38.702 12.407-46.266 31H251.67a10.002 10.002 0 0 0-7.072 17.071l41.821 41.821V462c0 27.57 22.43 50 50 50h125.58c27.57 0 50-22.43 50-50v-88c0-27.57-22.43-50-50-50zm30 138c0 16.542-13.458 30-30 30H336.42c-16.542 0-30-13.458-30-30v-52.25c0-2.652-1.054-5.196-2.929-7.071L275.812 375h21.637a10 10 0 0 0 9.746-7.758C310.343 353.558 322.36 344 336.42 344H462c16.542 0 30 13.458 30 30v88z" fill="url(#a)"/><path d="M444.16 391.39c-3.904-3.905-10.236-3.905-14.141 0l-26.583 26.583-12.361-12.361c-3.905-3.905-10.237-3.905-14.143 0-3.905 3.905-3.905 10.237 0 14.143l19.432 19.432c1.953 1.953 4.512 2.929 7.071 2.929s5.119-.976 7.071-2.929l33.654-33.654c3.905-3.905 3.905-10.237 0-14.143zM158.25 66.268c-1.182-17.147-15.004-30.969-32.151-32.151-9.723-.669-18.991 2.611-26.091 9.239a34.796 34.796 0 0 0-11.017 25.349c.001 5.524 4.478 10.001 10.001 10.001s10-4.477 10-10c0-4.111 1.656-7.921 4.664-10.729 3.003-2.804 6.938-4.196 11.069-3.906 7.239.499 13.074 6.334 13.573 13.573.505 7.319-4.293 13.787-11.408 15.379-7.788 1.742-13.227 8.513-13.227 16.465v5.335c0 5.523 4.477 10 10 10s10-4.477 10-10v-2.91c15.494-4.622 25.719-19.229 24.587-35.645zM130.74 136.02a10.076 10.076 0 0 0-7.07-2.93c-2.64 0-5.21 1.07-7.07 2.93-1.87 1.86-2.93 4.44-2.93 7.07s1.06 5.21 2.93 7.07c1.86 1.86 4.43 2.93 7.07 2.93 2.63 0 5.21-1.07 7.07-2.93s2.93-4.44 2.93-7.07-1.07-5.21-2.93-7.07z" fill="url(#a)"/></svg>