<svg width="512" height="512" xmlns="http://www.w3.org/2000/svg"><linearGradient id="a" x1="256" x2="256" y1="511" y2="1" gradientUnits="userSpaceOnUse"><stop stop-color="#cf0000" offset="0"/><stop stop-color="#0000cf" offset="1"/></linearGradient><g fill="url(#a)"><path d="M319.38 233.5a67.272 67.272 0 0 0-7.164-14.419l29.141-39.083c12.199-.035 23.044-5.923 29.873-14.998h73.041c6.848 9.102 17.737 15 29.98 15 20.678 0 37.5-16.822 37.5-37.5s-16.822-37.5-37.5-37.5c-12.243 0-23.132 5.898-29.98 15.001l-.02-.001h-73.02a37.812 37.812 0 0 0-7.98-7.841V86.32l26.82-26.82h53.839c6.823 9.383 17.878 15.5 30.341 15.5 20.678 0 37.5-16.822 37.5-37.5S494.928 0 474.25 0c-12.014 0-22.719 5.685-29.586 14.5H380.75c-6.01 0-11.66 2.34-15.91 6.59l-40 40c-4.25 4.25-6.59 9.9-6.59 15.91v35.914c-11.291 8.649-17.528 24.992-12.966 40.182l-28.83 38.666a67.228 67.228 0 0 0-20.704-3.261c-37.22 0-67.5 30.28-67.5 67.5s30.28 67.5 67.5 67.5a67.216 67.216 0 0 0 20.374-3.15l29.116 38.707a37.352 37.352 0 0 0-1.49 10.442c0 12.014 5.685 22.719 14.5 29.586V435c0 6.01 2.34 11.66 6.59 15.91l40 40c4.25 4.25 9.9 6.59 15.91 6.59h63.914c6.868 8.815 17.572 14.5 29.586 14.5 20.678 0 37.5-16.822 37.5-37.5s-16.822-37.5-37.5-37.5c-12.463 0-23.519 6.117-30.341 15.5H390.07l-26.82-26.82v-25.839a37.836 37.836 0 0 0 7.98-7.841h73.041c6.848 9.102 17.737 15 29.98 15 20.678 0 37.5-16.822 37.5-37.5s-16.822-37.5-37.5-37.5c-12.243 0-23.132 5.898-29.98 15.001l-.02-.001h-73.02c-6.848-9.102-17.737-15-29.98-15l-.052.001-29.173-38.783a67.289 67.289 0 0 0 7.355-14.718h124.87l.02-.001c6.848 9.103 17.738 15.001 29.98 15.001 20.678 0 37.5-16.822 37.5-37.5s-16.822-37.5-37.5-37.5c-12.243 0-23.132 5.898-29.98 15.001l-.02-.001m-6.746 15a39.259 39.259 0 0 0 0 15h-114.68c.413-3.925.659-8.879 0-15M474.255 120c12.407 0 22.5 10.093 22.5 22.5s-10.093 22.5-22.5 22.5-22.5-10.093-22.5-22.5 10.093-22.5 22.5-22.5zM378 135h59.509a39.259 39.259 0 0 0 0 15H378c.494-2.424.755-4.932.755-7.5s-.261-5.076-.755-7.5zm96.255-120c12.407 0 22.5 10.093 22.5 22.5S486.662 60 474.255 60s-22.5-10.093-22.5-22.5 10.093-22.5 22.5-22.5zm0 437c12.407 0 22.5 10.093 22.5 22.5s-10.093 22.5-22.5 22.5-22.5-10.093-22.5-22.5 10.093-22.5 22.5-22.5zm0-105c12.407 0 22.5 10.093 22.5 22.5s-10.093 22.5-22.5 22.5-22.5-10.093-22.5-22.5 10.093-22.5 22.5-22.5zM378 362h59.509a39.259 39.259 0 0 0 0 15H378a39.259 39.259 0 0 0 0-15zm96.255-128.5c12.407 0 22.5 10.093 22.5 22.5s-10.093 22.5-22.5 22.5-22.5-10.093-22.5-22.5 10.093-22.5 22.5-22.5zm-141-156.5a7.45 7.45 0 0 1 2.197-5.303l40-40a7.45 7.45 0 0 1 5.303-2.197h56.868a37.466 37.466 0 0 0-.868 8c0 2.393.235 4.731.665 7h-50.452c-1.989 0-3.897.79-5.303 2.197L350.452 77.91a7.497 7.497 0 0 0-2.197 5.303v22.452c-4-.712-8.828-1.048-15 .203zm-77.5 231.5c-28.949 0-52.5-23.551-52.5-52.5s23.551-52.5 52.5-52.5 52.5 23.551 52.5 52.5-23.551 52.5-52.5 52.5zm125.91 156.8a7.497 7.497 0 0 0 5.303 2.197h50.452c-.712 4-1.048 8.828.203 15h-56.868a7.448 7.448 0 0 1-5.303-2.197l-40-40a7.45 7.45 0 0 1-2.197-5.303v-28.868c3.715.779 9.159 1.301 15 .203v22.452c0 1.989.79 3.897 2.197 5.303zM341.255 347c12.407 0 22.5 10.093 22.5 22.5s-10.093 22.5-22.5 22.5-22.5-10.093-22.5-22.5 10.093-22.5 22.5-22.5zm-16.089-11.366a37.705 37.705 0 0 0-11.976 9.033l-23.034-30.622a67.876 67.876 0 0 0 11.96-9.053zm-22.819-128.4a67.918 67.918 0 0 0-11.915-9.115l22.862-30.661a37.68 37.68 0 0 0 12.017 8.978zm16.408-64.729c0-12.407 10.093-22.5 22.5-22.5s22.5 10.093 22.5 22.5-10.093 22.5-22.5 22.5-22.5-10.093-22.5-22.5z"/><path d="M114.25 256c-.486-78.021 63.477-141.5 141.5-141.5 2.066 0 4.142.046 6.214.135l-10.821 27.983a2.476 2.476 0 0 1-2.148 1.584c-58.736 3.513-104.74 52.402-104.74 111.3 0 58.886 46 107.77 104.72 111.3a2.478 2.478 0 0 1 2.153 1.591l11.108 28.958c-83.875-6.096-147.49-62.439-147.98-141.35zm153.62 156.04 28.003 73.004c.157.41.209.837.15 1.234-.907 6.115-6.264 10.726-12.462 10.726h-55.62c-6.948 0-12.6-5.652-12.6-12.6v-21.65a27.536 27.536 0 0 0-18.912-26.189 189.811 189.811 0 0 1-25.507-10.57c-10.667-5.367-23.497-3.311-31.924 5.117l-15.32 15.32c-2.38 2.38-5.545 3.691-8.912 3.691s-6.532-1.311-8.913-3.692l-40.036-40.027c-4.909-4.916-4.909-12.915-.005-17.825l15.333-15.322c8.428-8.429 10.483-21.258 5.117-31.923a189.705 189.705 0 0 1-10.571-25.506 27.538 27.538 0 0 0-26.19-18.914h-21.65c-6.948 0-12.6-5.652-12.6-12.6v-56.62c0-6.948 5.652-12.6 12.6-12.6h21.65a27.536 27.536 0 0 0 26.189-18.912 189.811 189.811 0 0 1 10.57-25.507c5.367-10.667 3.312-23.496-5.119-31.926l-15.324-15.315c-4.909-4.916-4.909-12.915-.003-17.827l40.037-40.037c4.917-4.91 12.916-4.91 17.825-.005l15.322 15.332a27.552 27.552 0 0 0 31.923 5.117 189.57 189.57 0 0 1 25.506-10.57 27.538 27.538 0 0 0 18.914-26.19v-21.65c0-6.948 5.652-12.6 12.6-12.6h55.62c6.194 0 11.551 4.608 12.461 10.721.059.396.006.823-.154 1.236l-7.603 19.663-20.624 53.336a159.32 159.32 0 0 0-11.89-.455c-86.294 0-156.49 70.441-156.5 156.5-.007 94.395 85.218 156.04 168.62 156.04zm4.881 99.964h10.81c13.574 0 25.311-10.113 27.3-23.526a17.477 17.477 0 0 0-.984-8.809l-44.745-116.65c-2.451-6.389-8.441-10.782-15.26-11.191-50.816-3.05-90.622-45.36-90.622-96.324 0-50.973 39.814-93.285 90.64-96.325 6.799-.407 12.783-4.783 15.244-11.147l37.121-95.998 7.603-19.663a17.472 17.472 0 0 0 1-8.858C308.862 10.11 297.127.004 283.561.004h-55.62c-15.219 0-27.6 12.381-27.6 27.6v21.65c0 5.44-3.466 10.242-8.628 11.95a204.903 204.903 0 0 0-27.533 11.41c-4.875 2.453-10.732 1.519-14.574-2.322l-15.325-15.335c-10.761-10.747-28.27-10.747-39.033.003L55.204 95.004c-10.747 10.761-10.747 28.269.005 39.035l15.328 15.318c3.843 3.843 4.777 9.701 2.324 14.577a204.889 204.889 0 0 0-11.411 27.534 12.561 12.561 0 0 1-11.949 8.626h-21.65c-15.219 0-27.6 12.381-27.6 27.6v56.62c0 15.219 12.381 27.6 27.6 27.6h21.65c5.44 0 10.242 3.466 11.95 8.628a204.903 204.903 0 0 0 11.41 27.533c2.453 4.875 1.519 10.732-2.322 14.574l-15.335 15.325c-10.747 10.761-10.747 28.269.004 39.034l40.04 40.029c10.762 10.763 28.273 10.763 39.037 0l15.32-15.32c3.843-3.843 9.701-4.777 14.577-2.323a204.889 204.889 0 0 0 27.534 11.411 12.561 12.561 0 0 1 8.626 11.949v21.65c0 15.219 12.381 27.6 27.6 27.6h9.81z"/></g></svg>