<?xml version="1.0" encoding="UTF-8" standalone="no"?>
<svg
   xmlns:dc="http://purl.org/dc/elements/1.1/"
   xmlns:cc="http://creativecommons.org/ns#"
   xmlns:rdf="http://www.w3.org/1999/02/22-rdf-syntax-ns#"
   xmlns:svg="http://www.w3.org/2000/svg"
   xmlns="http://www.w3.org/2000/svg"
   id="Capa_1"
   enable-background="new 0 0 512 512"
   height="512"
   viewBox="0 0 512 512"
   width="512"
   version="1.1">
  <metadata
     id="metadata360">
    <rdf:RDF>
      <cc:Work
         rdf:about="">
        <dc:format>image/svg+xml</dc:format>
        <dc:type
           rdf:resource="http://purl.org/dc/dcmitype/StillImage" />
        <dc:title></dc:title>
      </cc:Work>
    </rdf:RDF>
  </metadata>
  <linearGradient id="SVGID_1_" gradientUnits="userSpaceOnUse" x1="256" x2="256" y1="511" y2="1">
    <stop offset="0" stop-color="#cf0000"/>
    <stop offset="1" stop-color="#0000cf"/>
  </linearGradient>
  <defs
     id="defs358" />
  <g
     id="g353">
    <g
       id="g351">
      <path
         d="m 371.23,165 h 73.041 c 6.848,9.102 17.737,15 29.98,15 20.678,0 37.5,-16.822 37.5,-37.5 0,-20.678 -16.822,-37.5 -37.5,-37.5 -12.243,0 -23.132,5.898 -29.98,15.001 -0.007,0 -0.013,-0.001 -0.02,-0.001 h -73.02 c -2.253,-2.994 -4.947,-5.636 -7.98,-7.841 V 86.32 l 26.82,-26.82 h 53.839 c 6.823,9.383 17.878,15.5 30.341,15.5 20.678,0 37.5,-16.822 37.5,-37.5 C 511.751,16.822 494.928,0 474.25,0 462.236,0 451.531,5.685 444.664,14.5 H 380.75 c -6.01,0 -11.66,2.34 -15.91,6.59 l -40,40 c -4.25,4.25 -6.59,9.9 -6.59,15.91 v 35.914 c -11.291,8.649 -17.528,24.992 -12.966,40.182 l -28.83,38.666 c -6.528,-2.109 -13.483,-3.261 -20.704,-3.261 -37.22,0 -67.5,30.28 -67.5,67.5 0,37.22 30.28,67.5 67.5,67.5 7.099,0 13.942,-1.108 20.374,-3.15 l 29.116,38.707 c -0.964,3.317 -1.49,6.818 -1.49,10.442 0,12.014 5.685,22.719 14.5,29.586 V 435 c 0,6.01 2.34,11.66 6.59,15.91 l 40,40 c 4.25,4.25 9.9,6.59 15.91,6.59 h 63.914 c 6.868,8.815 17.572,14.5 29.586,14.5 20.678,0 37.5,-16.822 37.5,-37.5 0,-20.678 -16.822,-37.5 -37.5,-37.5 -12.463,0 -23.519,6.117 -30.341,15.5 H 390.07 l -26.82,-26.82 v -25.839 c 3.032,-2.205 5.727,-4.847 7.98,-7.841 h 73.041 c 6.848,9.102 17.737,15 29.98,15 20.678,0 37.5,-16.822 37.5,-37.5 0,-20.678 -16.822,-37.5 -37.5,-37.5 -12.243,0 -23.132,5.898 -29.98,15.001 -0.007,0 -0.013,-10e-4 -0.02,-10e-4 h -73.02 c -6.848,-9.102 -17.737,-15 -29.98,-15 -0.017,0 -0.035,10e-4 -0.052,10e-4 l -29.173,-38.783 c 3.02,-4.551 5.5,-9.487 7.355,-14.718 h 124.87 c 0.007,0 0.013,-10e-4 0.02,-10e-4 6.848,9.103 17.738,15.001 29.98,15.001 20.678,0 37.5,-16.822 37.5,-37.5 0,-20.678 -16.822,-37.5 -37.5,-37.5 -12.243,0 -23.132,5.898 -29.98,15.001 -0.007,0 -0.013,-0.001 -0.02,-0.001 h -43.533 c -4.142,0 -7.5,3.358 -7.5,7.5 0,4.142 3.358,7.5 7.5,7.5 h 36.787 c -0.738,3.857 -1.167,8.941 0,15 H 322.823 c 0.413,-3.925 0.659,-8.879 0,-15 h 41.927 c 4.142,0 7.5,-3.358 7.5,-7.5 0,-4.142 -3.358,-7.5 -7.5,-7.5 h -45.37 c -1.815,-5.118 -4.232,-9.95 -7.164,-14.419 l 29.141,-39.083 c 12.199,-0.035 23.044,-5.923 29.873,-14.998 z m 103.02,-45 c 12.407,0 22.5,10.093 22.5,22.5 0,12.407 -10.093,22.5 -22.5,22.5 -12.407,0 -22.5,-10.093 -22.5,-22.5 0,-12.407 10.093,-22.5 22.5,-22.5 z m -96.255,15 h 59.509 c -0.738,3.857 -1.167,8.941 0,15 h -59.509 c 0.494,-2.424 0.755,-4.932 0.755,-7.5 0,-2.568 -0.261,-5.076 -0.755,-7.5 z M 474.25,15 c 12.407,0 22.5,10.093 22.5,22.5 0,12.407 -10.093,22.5 -22.5,22.5 -12.407,0 -22.5,-10.093 -22.5,-22.5 0,-12.407 10.093,-22.5 22.5,-22.5 z m 0,437 c 12.407,0 22.5,10.093 22.5,22.5 0,12.407 -10.093,22.5 -22.5,22.5 -12.407,0 -22.5,-10.093 -22.5,-22.5 0,-12.407 10.093,-22.5 22.5,-22.5 z m 0,-105 c 12.407,0 22.5,10.093 22.5,22.5 0,12.407 -10.093,22.5 -22.5,22.5 -12.407,0 -22.5,-10.093 -22.5,-22.5 0,-12.407 10.093,-22.5 22.5,-22.5 z m -96.255,15 h 59.509 c -0.738,3.857 -1.167,8.941 0,15 h -59.509 c 0.738,-3.857 1.167,-8.941 0,-15 z M 474.25,233.5 c 12.407,0 22.5,10.093 22.5,22.5 0,12.407 -10.093,22.5 -22.5,22.5 -12.407,0 -22.5,-10.093 -22.5,-22.5 0,-12.407 10.093,-22.5 22.5,-22.5 z M 333.25,77 c 0,-2.003 0.78,-3.886 2.197,-5.303 l 40,-40 c 1.417,-1.417 3.3,-2.197 5.303,-2.197 h 56.868 c -0.563,2.579 -0.868,5.254 -0.868,8 0,2.393 0.235,4.731 0.665,7 h -50.452 c -1.989,0 -3.897,0.79 -5.303,2.197 L 350.447,77.91 c -1.407,1.406 -2.197,3.314 -2.197,5.303 v 22.452 c -4,-0.712 -8.828,-1.048 -15,0.203 z m -77.5,231.5 c -28.949,0 -52.5,-23.551 -52.5,-52.5 0,-28.949 23.551,-52.5 52.5,-52.5 28.949,0 52.5,23.551 52.5,52.5 0,28.949 -23.551,52.5 -52.5,52.5 z m 125.91,156.803 c 1.406,1.407 3.314,2.197 5.303,2.197 h 50.452 c -0.712,4 -1.048,8.828 0.203,15 H 380.75 c -2.003,0 -3.887,-0.78 -5.303,-2.197 l -40,-40 c -1.417,-1.417 -2.197,-3.3 -2.197,-5.303 v -28.868 c 3.715,0.779 9.159,1.301 15,0.203 v 22.452 c 0,1.989 0.79,3.897 2.197,5.303 z M 341.25,347 c 12.407,0 22.5,10.093 22.5,22.5 0,12.407 -10.093,22.5 -22.5,22.5 -12.407,0 -22.5,-10.093 -22.5,-22.5 0,-12.407 10.093,-22.5 22.5,-22.5 z m -16.089,-11.366 c -4.58,2.185 -8.646,5.274 -11.976,9.033 l -23.034,-30.622 c 4.322,-2.571 8.329,-5.615 11.96,-9.053 z M 302.342,207.229 c -3.616,-3.456 -7.605,-6.523 -11.915,-9.115 l 22.862,-30.661 c 3.345,3.744 7.426,6.813 12.017,8.978 z M 318.75,142.5 c 0,-12.407 10.093,-22.5 22.5,-22.5 12.407,0 22.5,10.093 22.5,22.5 0,12.407 -10.093,22.5 -22.5,22.5 -12.407,0 -22.5,-10.093 -22.5,-22.5 z"
         id="path345" fill="url(#SVGID_1_)" />
      <path
         d="m 237.75,497 h -9.81 c -6.948,0 -12.6,-5.652 -12.6,-12.6 v -21.65 c 0,-11.922 -7.601,-22.447 -18.912,-26.189 -8.722,-2.889 -17.304,-6.445 -25.507,-10.57 -10.667,-5.367 -23.497,-3.311 -31.924,5.117 l -15.32,15.32 c -2.38,2.38 -5.545,3.691 -8.912,3.691 -3.367,0 -6.532,-1.311 -8.913,-3.692 L 65.816,406.4 c -4.909,-4.916 -4.909,-12.915 -0.005,-17.825 L 81.144,373.253 C 89.572,364.824 91.627,351.995 86.261,341.33 82.135,333.126 78.578,324.544 75.69,315.824 71.947,304.511 61.422,296.91 49.5,296.91 H 27.85 c -6.948,0 -12.6,-5.652 -12.6,-12.6 v -56.62 c 0,-6.948 5.652,-12.6 12.6,-12.6 H 49.5 c 11.922,0 22.447,-7.601 26.189,-18.912 2.889,-8.722 6.445,-17.304 10.57,-25.507 5.367,-10.667 3.312,-23.496 -5.119,-31.926 L 65.816,123.43 c -4.909,-4.916 -4.909,-12.915 -0.003,-17.827 L 105.85,65.566 c 4.917,-4.91 12.916,-4.91 17.825,-0.005 l 15.322,15.332 c 8.429,8.427 21.259,10.485 31.923,5.117 8.204,-4.126 16.786,-7.683 25.506,-10.57 11.313,-3.743 18.914,-14.268 18.914,-26.19 V 27.6 c 0,-6.948 5.652,-12.6 12.6,-12.6 h 55.62 c 6.194,0 11.551,4.608 12.461,10.721 0.059,0.396 0.006,0.823 -0.154,1.236 l -7.603,19.663 c -1.494,3.864 0.427,8.207 4.29,9.7 3.864,1.493 8.207,-0.427 9.7,-4.29 l 7.603,-19.663 c 1.096,-2.834 1.441,-5.897 1,-8.858 C 308.861,10.106 297.126,0 283.56,0 h -55.62 c -15.219,0 -27.6,12.381 -27.6,27.6 v 21.65 c 0,5.44 -3.466,10.242 -8.628,11.95 -9.414,3.118 -18.677,6.957 -27.533,11.41 -4.875,2.453 -10.732,1.519 -14.574,-2.322 L 134.28,54.953 C 123.519,44.206 106.01,44.206 95.247,54.956 L 55.203,95 c -10.747,10.761 -10.747,28.269 0.005,39.035 l 15.328,15.318 c 3.843,3.843 4.777,9.701 2.324,14.577 -4.453,8.855 -8.292,18.118 -11.411,27.534 -1.707,5.16 -6.509,8.626 -11.949,8.626 H 27.85 c -15.219,0 -27.6,12.381 -27.6,27.6 v 56.62 c 0,15.219 12.381,27.6 27.6,27.6 H 49.5 c 5.44,0 10.242,3.466 11.95,8.628 3.118,9.414 6.957,18.677 11.41,27.533 2.453,4.875 1.519,10.732 -2.322,14.574 L 55.203,377.97 c -10.747,10.761 -10.747,28.269 0.004,39.034 l 40.04,40.029 c 10.762,10.763 28.273,10.763 39.037,0 l 15.32,-15.32 c 3.843,-3.843 9.701,-4.777 14.577,-2.323 8.855,4.453 18.118,8.292 27.534,11.411 5.16,1.707 8.626,6.509 8.626,11.949 v 21.65 c 0,15.219 12.381,27.6 27.6,27.6 h 9.81 c 4.142,0 7.5,-3.358 7.5,-7.5 0,-4.142 -3.359,-7.5 -7.501,-7.5 z"
         id="path347" fill="url(#SVGID_1_)" />
      <path
         d="m 265.131,363.015 c -2.451,-6.389 -8.441,-10.782 -15.26,-11.191 -50.816,-3.05 -90.622,-45.36 -90.622,-96.324 0,-50.973 39.814,-93.285 90.64,-96.325 6.799,-0.407 12.783,-4.783 15.244,-11.147 l 24.49,-63.333 c 1.494,-3.863 -0.427,-8.207 -4.29,-9.7 -3.863,-1.494 -8.207,0.427 -9.7,4.29 l -7.993,20.671 c -3.943,-0.296 -7.933,-0.455 -11.89,-0.455 -86.294,0 -156.5,70.206 -156.5,156.5 0,35.334 11.492,68.681 33.233,96.434 1.479,1.889 3.683,2.875 5.909,2.875 1.618,0 3.248,-0.521 4.62,-1.596 3.261,-2.555 3.833,-7.269 1.279,-10.529 C 124.638,318.096 114.25,287.948 114.25,256 c 0,-78.023 63.477,-141.5 141.5,-141.5 2.066,0 4.142,0.046 6.214,0.135 l -10.821,27.983 c -0.35,0.905 -1.193,1.526 -2.148,1.584 -58.736,3.513 -104.745,52.402 -104.745,111.298 0,58.886 46,107.773 104.723,111.297 0.959,0.058 1.805,0.683 2.153,1.591 l 11.108,28.958 c -33.309,1.739 -68.174,-9.3 -94.459,-30.511 -3.243,-2.578 -7.961,-2.039 -10.538,1.204 -2.578,3.243 -2.038,7.961 1.204,10.538 30.825,24.616 69.621,36.437 109.428,33.459 l 28.003,73.004 c 0.157,0.41 0.209,0.837 0.15,1.234 C 295.115,492.389 289.758,497 283.56,497 h -10.81 c -4.142,0 -7.5,3.358 -7.5,7.5 0,4.142 3.358,7.5 7.5,7.5 h 10.81 c 13.574,0 25.311,-10.113 27.3,-23.526 0.437,-2.948 0.097,-5.994 -0.984,-8.809 z"
         id="path349" fill="url(#SVGID_1_)" />
    </g>
  </g>
</svg>
