<?xml version="1.0" encoding="UTF-8" standalone="no"?>
<svg
   xmlns:dc="http://purl.org/dc/elements/1.1/"
   xmlns:cc="http://creativecommons.org/ns#"
   xmlns:rdf="http://www.w3.org/1999/02/22-rdf-syntax-ns#"
   xmlns:svg="http://www.w3.org/2000/svg"
   xmlns="http://www.w3.org/2000/svg"
   xmlns:sodipodi="http://sodipodi.sourceforge.net/DTD/sodipodi-0.dtd"
   xmlns:inkscape="http://www.inkscape.org/namespaces/inkscape"
   width="512"
   height="512"
   viewBox="0 0 512 512"
   version="1.1"
   id="svg8"
   inkscape:version="1.0.1 (c497b03c, 2020-09-10)"
   sodipodi:docname="address.svg">
  <defs
     id="defs2" />
  <sodipodi:namedview
     id="base"
     pagecolor="#ffffff"
     bordercolor="#666666"
     borderopacity="1.0"
     inkscape:pageopacity="0.0"
     inkscape:pageshadow="2"
     inkscape:zoom="1.5883026"
     inkscape:cx="274.78171"
     inkscape:cy="256.24465"
     inkscape:document-units="px"
     inkscape:current-layer="layer1"
     inkscape:document-rotation="0"
     showgrid="false"
     units="px"
     inkscape:window-width="1680"
     inkscape:window-height="1050"
     inkscape:window-x="0"
     inkscape:window-y="0"
     inkscape:window-maximized="0" />
  <metadata
     id="metadata5">
    <rdf:RDF>
      <cc:Work
         rdf:about="">
        <dc:format>image/svg+xml</dc:format>
        <dc:type
           rdf:resource="http://purl.org/dc/dcmitype/StillImage" />
        <dc:title></dc:title>
      </cc:Work>
    </rdf:RDF>
  </metadata>
  <g
     inkscape:label="Calque 1"
     inkscape:groupmode="layer"
     id="layer1">
    <path
       d="m 256,35.104 c -89.9904,0 -163.2,73.2096 -163.2,163.2 0,29.6256 13.2864,61.488 13.8432,62.832 4.2912,10.1856 12.7584,26.0064 18.864,35.28 l 111.8976,169.5456 c 4.5792,6.9504 11.3568,10.9344 18.5952,10.9344 7.2384,0 14.016,-3.984 18.5952,-10.9248 L 386.5024,296.416 c 6.1152,-9.2736 14.5728,-25.0944 18.864,-35.28 0.5568,-1.3344 13.8336,-33.1968 13.8336,-62.832 0,-89.9904 -73.2096,-163.2 -163.2,-163.2 z m 131.664,218.5824 c -3.8304,9.1296 -11.712,23.8464 -17.1936,32.16 L 258.5632,455.4016 c -2.208,3.3504 -2.9088,3.3504 -5.1168,0 L 141.5392,285.8464 c -5.4816,-8.3136 -13.3632,-23.04 -17.1936,-32.1696 C 124.1824,253.2832 112,223.9552 112,198.304 c 0,-79.4016 64.5984,-144 144,-144 79.4016,0 144,64.5984 144,144 0,25.6896 -12.2112,55.0944 -12.336,55.3824 z"
       id="path51"
       style="stroke-width:1.2;fill:#0000cf;fill-opacity:1;stroke:none" />
    <path
       d="m 256,111.9136 c -47.6448,0 -86.4,38.7648 -86.4,86.4 0,47.6352 38.7552,86.4 86.4,86.4 47.6448,0 86.4,-38.7648 86.4,-86.4 0,-47.6352 -38.7552,-86.4 -86.4,-86.4 z m 0,153.6 c -37.0464,0 -67.2,-30.144 -67.2,-67.2 0,-37.056 30.1536,-67.2 67.2,-67.2 37.0464,0 67.2,30.144 67.2,67.2 0,37.056 -30.1536,67.2 -67.2,67.2 z"
       id="path53"
       style="stroke-width:1.2;fill:#cf0000;fill-opacity:1" />
  </g>
</svg>
