<?xml version="1.0" encoding="utf-8"?>
<svg viewBox="0 0 512 512" width="512px" height="512px" xmlns="http://www.w3.org/2000/svg">
  <path d="M 251.402 447.44 C 215.035 447.44 184.069 439.75 158.502 424.37 C 132.935 408.99 113.725 387.047 100.872 358.54 C 88.019 330.033 82.345 296.023 83.852 256.51 C 85.492 217.41 93.969 183.503 109.282 154.79 C 124.595 126.083 145.649 103.867 172.442 88.14 C 199.242 72.42 230.619 64.56 266.572 64.56 C 301.712 64.56 331.552 71.943 356.092 86.71 C 380.632 101.477 399.122 122.427 411.562 149.56 C 424.009 176.7 429.549 208.863 428.182 246.05 C 427.362 266.837 423.192 285.773 415.672 302.86 C 408.152 319.953 397.385 333.557 383.372 343.67 C 369.359 353.79 352.232 358.85 331.992 358.85 C 318.599 358.85 307.695 355.807 299.282 349.72 C 290.875 343.633 285.032 335.053 281.752 323.98 C 269.992 346.68 252.562 358.03 229.462 358.03 C 209.362 358.03 194.049 349.827 183.522 333.42 C 172.995 317.013 169.099 294.863 171.832 266.97 C 174.152 244.683 179.039 225.167 186.492 208.42 C 193.945 191.673 204.269 178.583 217.462 169.15 C 230.655 159.717 247.025 155 266.572 155 C 278.879 155 289.955 156.743 299.802 160.23 C 309.642 163.717 320.715 169.22 333.022 176.74 L 333.432 177.56 L 322.972 294.45 C 322.565 302.517 322.872 308.91 323.892 313.63 C 324.919 318.343 326.765 321.693 329.432 323.68 C 332.099 325.66 335.482 326.65 339.582 326.65 C 352.982 326.65 364.195 319.163 373.222 304.19 C 382.242 289.223 387.299 269.843 388.392 246.05 C 390.579 200.117 381.282 164.093 360.502 137.98 C 339.722 111.867 308.139 98.81 265.752 98.81 C 238.139 98.81 214.249 105.2 194.082 117.98 C 173.915 130.767 158.089 148.987 146.602 172.64 C 135.122 196.287 128.699 224.243 127.332 256.51 C 125.692 288.23 129.589 315.573 139.022 338.54 C 148.455 361.513 162.809 379.22 182.082 391.66 C 201.362 404.1 224.742 410.32 252.222 410.32 C 263.709 410.32 275.672 408.987 288.112 406.32 C 300.552 403.653 311.282 400.34 320.302 396.38 L 327.892 429.19 C 318.872 434.93 307.285 439.407 293.132 442.62 C 278.985 445.833 265.075 447.44 251.402 447.44 Z M 245.042 320.09 C 251.195 320.09 257.109 318.243 262.782 314.55 C 268.455 310.857 273.615 304.09 278.262 294.25 C 278.402 293.563 278.539 292.743 278.672 291.79 C 278.812 290.83 278.949 289.187 279.082 286.86 L 287.292 196.63 C 284.559 195.537 281.652 194.683 278.572 194.07 C 275.499 193.45 272.252 193.14 268.832 193.14 C 254.612 193.14 243.709 199.43 236.122 212.01 C 228.535 224.59 223.579 243.663 221.252 269.23 C 219.752 285.91 220.982 298.557 224.942 307.17 C 228.909 315.783 235.609 320.09 245.042 320.09 Z" style="white-space: pre; fill: rgb(0, 0, 207);">
    <title>outside</title>
  </path>
  <path d="M 322.972 294.45 C 322.565 302.517 307.695 355.807 299.282 349.72 C 290.875 343.633 285.032 335.053 281.752 323.98 C 269.992 346.68 252.562 358.03 229.462 358.03 C 209.362 358.03 194.049 349.827 183.522 333.42 C 172.995 317.013 169.099 294.863 171.832 266.97 C 174.152 244.683 179.039 225.167 186.492 208.42 C 193.945 191.673 204.269 178.583 217.462 169.15 C 230.655 159.717 247.025 155 266.572 155 C 278.879 155 289.955 156.743 299.802 160.23 C 309.642 163.717 320.715 169.22 333.022 176.74 L 333.432 177.56 L 322.972 294.45 Z M 245.042 320.09 C 251.195 320.09 257.109 318.243 262.782 314.55 C 268.455 310.857 273.615 304.09 278.262 294.25 C 278.402 293.563 278.539 292.743 278.672 291.79 C 278.812 290.83 278.949 289.187 279.082 286.86 L 287.292 196.63 C 284.559 195.537 281.652 194.683 278.572 194.07 C 275.499 193.45 272.252 193.14 268.832 193.14 C 254.612 193.14 243.709 199.43 236.122 212.01 C 228.535 224.59 223.579 243.663 221.252 269.23 C 219.752 285.91 220.982 298.557 224.942 307.17 C 228.909 315.783 235.609 320.09 245.042 320.09 Z" style="white-space: pre; fill: rgb(207, 0, 0);">
    <title>inside</title>
  </path>
</svg>