<svg width="512" height="512" xmlns="http://www.w3.org/2000/svg"><path d="M251.402 447.44c-36.367 0-67.333-7.69-92.9-23.07-25.567-15.38-44.777-37.323-57.63-65.83-12.853-28.507-18.527-62.517-17.02-102.03 1.64-39.1 10.117-73.007 25.43-101.72 15.313-28.707 36.367-50.923 63.16-66.65 26.8-15.72 58.177-23.58 94.13-23.58 35.14 0 64.98 7.383 89.52 22.15 24.54 14.767 43.03 35.717 55.47 62.85 12.447 27.14 17.987 59.303 16.62 96.49-.82 20.787-4.99 39.723-12.51 56.81-7.52 17.093-18.287 30.697-32.3 40.81-14.013 10.12-31.14 15.18-51.38 15.18-13.393 0-24.297-3.043-32.71-9.13-8.407-6.087-14.25-14.667-17.53-25.74-11.76 22.7-29.19 34.05-52.29 34.05-20.1 0-35.413-8.203-45.94-24.61-10.527-16.407-14.423-38.557-11.69-66.45 2.32-22.287 7.207-41.803 14.66-58.55s17.777-29.837 30.97-39.27c13.193-9.433 29.563-14.15 49.11-14.15 12.307 0 23.383 1.743 33.23 5.23 9.84 3.487 20.913 8.99 33.22 16.51l.41.82-10.46 116.89c-.407 8.067-.1 14.46.92 19.18 1.027 4.713 2.873 8.063 5.54 10.05 2.667 1.98 6.05 2.97 10.15 2.97 13.4 0 24.613-7.487 33.64-22.46 9.02-14.967 14.077-34.347 15.17-58.14 2.187-45.933-7.11-81.957-27.89-108.07s-52.363-39.17-94.75-39.17c-27.613 0-51.503 6.39-71.67 19.17-20.167 12.787-35.993 31.007-47.48 54.66-11.48 23.647-17.903 51.603-19.27 83.87-1.64 31.72 2.257 59.063 11.69 82.03 9.433 22.973 23.787 40.68 43.06 53.12 19.28 12.44 42.66 18.66 70.14 18.66 11.487 0 23.45-1.333 35.89-4 12.44-2.667 23.17-5.98 32.19-9.94l7.59 32.81c-9.02 5.74-20.607 10.217-34.76 13.43-14.147 3.213-28.057 4.82-41.73 4.82zm-6.36-127.35c6.153 0 12.067-1.847 17.74-5.54 5.673-3.693 10.833-10.46 15.48-20.3.14-.687.277-1.507.41-2.46.14-.96.277-2.603.41-4.93l8.21-90.23c-2.733-1.093-5.64-1.947-8.72-2.56-3.073-.62-6.32-.93-9.74-.93-14.22 0-25.123 6.29-32.71 18.87-7.587 12.58-12.543 31.653-14.87 57.22-1.5 16.68-.27 29.327 3.69 37.94 3.967 8.613 10.667 12.92 20.1 12.92z" style="white-space:pre;fill:#0000cf"/><path d="M322.972 294.45c-.407 8.067-15.277 61.357-23.69 55.27-8.407-6.087-14.25-14.667-17.53-25.74-11.76 22.7-29.19 34.05-52.29 34.05-20.1 0-35.413-8.203-45.94-24.61-10.527-16.407-14.423-38.557-11.69-66.45 2.32-22.287 7.207-41.803 14.66-58.55s17.777-29.837 30.97-39.27c13.193-9.433 29.563-14.15 49.11-14.15 12.307 0 23.383 1.743 33.23 5.23 9.84 3.487 20.913 8.99 33.22 16.51l.41.82-10.46 116.89zm-77.93 25.64c6.153 0 12.067-1.847 17.74-5.54 5.673-3.693 10.833-10.46 15.48-20.3.14-.687.277-1.507.41-2.46.14-.96.277-2.603.41-4.93l8.21-90.23c-2.733-1.093-5.64-1.947-8.72-2.56-3.073-.62-6.32-.93-9.74-.93-14.22 0-25.123 6.29-32.71 18.87-7.587 12.58-12.543 31.653-14.87 57.22-1.5 16.68-.27 29.327 3.69 37.94 3.967 8.613 10.667 12.92 20.1 12.92z" style="white-space:pre;fill:#cf0000"/></svg>