<?xml version="1.0" encoding="UTF-8" standalone="no"?>
<svg
   xmlns:dc="http://purl.org/dc/elements/1.1/"
   xmlns:cc="http://creativecommons.org/ns#"
   xmlns:rdf="http://www.w3.org/1999/02/22-rdf-syntax-ns#"
   xmlns:svg="http://www.w3.org/2000/svg"
   xmlns="http://www.w3.org/2000/svg"
   xmlns:sodipodi="http://sodipodi.sourceforge.net/DTD/sodipodi-0.dtd"
   xmlns:inkscape="http://www.inkscape.org/namespaces/inkscape"
   version="1.1"
   viewBox="0 0 158 158"
   id="svg121"
   sodipodi:docname="favicon.svg"
   inkscape:version="1.0.1 (c497b03c, 2020-09-10)"
   width="158"
   height="158"
   inkscape:export-filename="/Users/loic/Documents/Projet freelance/Logo/barberos-final.png"
   inkscape:export-xdpi="96"
   inkscape:export-ydpi="96">
  <defs
     id="defs125" />
  <sodipodi:namedview
     pagecolor="#ffffff"
     bordercolor="#666666"
     borderopacity="1"
     objecttolerance="10"
     gridtolerance="10"
     guidetolerance="10"
     inkscape:pageopacity="0"
     inkscape:pageshadow="2"
     inkscape:window-width="1680"
     inkscape:window-height="1022"
     id="namedview123"
     showgrid="false"
     inkscape:zoom="1.8015811"
     inkscape:cx="123.89382"
     inkscape:cy="90"
     inkscape:window-x="0"
     inkscape:window-y="28"
     inkscape:window-maximized="0"
     inkscape:current-layer="g119"
     inkscape:document-rotation="0" />
  <metadata
     id="metadata99">
    <rdf:RDF>
      <cc:Work
         rdf:about="">
        <dc:format>image/svg+xml</dc:format>
        <dc:type
           rdf:resource="http://purl.org/dc/dcmitype/StillImage" />
        <dc:title></dc:title>
      </cc:Work>
    </rdf:RDF>
  </metadata>
  <g
     transform="translate(0,-207)"
     id="g119">
    <g
       transform="matrix(2.2559381,0,0,2.25674,-7.8259297,-282.41637)"
       stroke-width="0.26458"
       style="font-variant-ligatures:normal;font-variant-caps:normal;font-variant-numeric:normal;font-variant-east-asian:normal"
       aria-label="Barberos"
       id="g117">
      <g
         id="g935"
         transform="matrix(0.74194577,0,0,0.75829961,52.667925,143.79852)"
         inkscape:label="group1">
        <path
           inkscape:connector-curvature="0"
           id="left_brace"
           style="font-style:normal;font-variant:normal;font-weight:normal;font-stretch:normal;font-size:22.5778px;line-height:1.25;font-family:'JetBrains Mono';-inkscape-font-specification:'JetBrains Mono';letter-spacing:0px;word-spacing:0px;fill:#000000;fill-opacity:1;stroke:none;stroke-width:0.825697"
           d="m -37.724374,177.68988 c -2.62224,0 -4.91113,-0.49646 -6.86668,-1.48938 -1.9111,-0.94327 -3.35555,-2.35816 -4.33334,-4.24467 -0.97778,-1.83688 -1.35555,-4.0461 -1.13333,-6.62766 l 1,-12.21276 c 0.22223,-2.63121 -0.1111,-4.51774 -1,-5.65958 -0.8889,-1.19149 -2.77778,-1.78724 -5.66666,-1.78724 v 0 -5.95744 0 c 0,0 4.77776,-0.57092 5.66666,-1.71276 0.8889,-1.19149 1.22223,-3.10284 1,-5.73405 l -1,-12.21276 c -0.22222,-2.63121 0.15555,-4.86525 1.13333,-6.70213 0.97779,-1.83688 2.42224,-3.22695 4.33334,-4.17021 1.95555,-0.99291 4.24444,-1.48936 6.86668,-1.48936 h 2.99999 v 5.95745 h -2.99999 c -2.0889,0 -3.71113,0.5461 -4.86668,1.6383 -1.15556,1.04255 -1.64445,2.6312 -1.46668,4.76595 l 1,12.21276 c 0.26668,3.22695 -0.39998,5.75887 -1.99998,7.59575 -1.6,1.78723 -3.82222,2.68084 -6.66666,2.68084 v -0.37233 c 2.79998,0 4.99998,1.01773 6.59998,3.05318 1.64445,2.03547 2.33334,4.66668 2.06666,7.89363 l -1,12.21276 c -0.17773,2.13475 0.31116,3.7234 1.46668,4.76594 1.15555,1.09219 2.77778,1.63829 4.86668,1.63829 h 2.99999 v 5.95748 z"
           inkscape:label="left_brace"
           sodipodi:nodetypes="scccccsccscccscsccsccccccccccsccs" />
        <path
           inkscape:connector-curvature="0"
           id="right_brace"
           style="font-style:normal;font-variant:normal;font-weight:normal;font-stretch:normal;font-size:22.5778px;line-height:1.25;font-family:'JetBrains Mono';-inkscape-font-specification:'JetBrains Mono';letter-spacing:0px;word-spacing:0px;fill:#000000;fill-opacity:1;stroke:none;stroke-width:0.825697"
           d="m -29.724394,177.68988 c 2.62224,0 4.91113,-0.49646 6.86668,-1.48938 1.9111,-0.94327 3.35555,-2.35816 4.33334,-4.24467 0.97778,-1.83688 1.35555,-4.0461 1.13333,-6.62766 l -1,-12.21276 c -0.22223,-2.63121 0.1111,-4.51774 1,-5.65958 0.8889,-1.19149 2.77778,-1.78724 5.66666,-1.78724 v 0 -5.95744 0 c 0,0 -4.77776,-0.57092 -5.66666,-1.71276 -0.8889,-1.19149 -1.22223,-3.10284 -1,-5.73405 l 1,-12.21276 c 0.22222,-2.63121 -0.15555,-4.86525 -1.13333,-6.70213 -0.97779,-1.83688 -2.42224,-3.22695 -4.33334,-4.17021 -1.95555,-0.99291 -4.24444,-1.48936 -6.86668,-1.48936 h -2.99999 v 5.95745 h 2.99999 c 2.0889,0 3.71113,0.5461 4.86668,1.6383 1.15556,1.04255 1.64445,2.6312 1.46668,4.76595 l -1,12.21276 c -0.26668,3.22695 0.39998,5.75887 1.99998,7.59575 1.6,1.78723 3.82222,2.68084 6.66666,2.68084 v -0.37233 c -2.79998,0 -4.99998,1.01773 -6.59998,3.05318 -1.64445,2.03547 -2.33334,4.66668 -2.06666,7.89363 l 1,12.21276 c 0.17773,2.13475 -0.31116,3.7234 -1.46668,4.76594 -1.15555,1.09219 -2.77778,1.63829 -4.86668,1.63829 h -2.99999 v 5.95748 z"
           inkscape:label="right_brace"
           sodipodi:nodetypes="scccccsccscccscsccsccccccccccsccs" />
        <path
           style="fill:#cf0000;fill-opacity:1;stroke:#cf0000;stroke-width:0.222797;stroke-linecap:square;stroke-miterlimit:4;stroke-dasharray:none;stroke-opacity:1"
           inkscape:transform-center-x="-13.800385"
           inkscape:transform-center-y="-6.6248513"
           d="m -25.832507,169.5567 v -7.68804 l -15.503874,7.61066 z"
           id="sign5"
           inkscape:connector-curvature="0"
           sodipodi:nodetypes="cccc"
           inkscape:label="sign5" />
        <path
           style="fill:#cf0000;fill-opacity:1;stroke:#cf0000;stroke-width:0.222797;stroke-linecap:square;stroke-miterlimit:4;stroke-dasharray:none;stroke-opacity:1"
           inkscape:transform-center-x="13.800382"
           inkscape:transform-center-y="6.624848"
           d="m -41.612991,115.80198 v 7.68803 l 15.503874,-7.61066 z"
           id="sign1"
           inkscape:connector-curvature="0"
           sodipodi:nodetypes="cccc"
           inkscape:label="sign1" />
        <path
           style="fill:#cf0000;fill-opacity:1;stroke:#cf0000;stroke-width:0.226331;stroke-linecap:square;stroke-miterlimit:4;stroke-dasharray:none;stroke-opacity:1"
           inkscape:transform-center-x="14.040384"
           inkscape:transform-center-y="6.7198212"
           d="m -41.611223,142.67944 v 7.79823 l 15.773489,-7.71974 -0.06791,-7.87655 z"
           id="sign3"
           inkscape:connector-curvature="0"
           sodipodi:nodetypes="ccccc"
           inkscape:label="sign3" />
        <path
           style="fill:#0000cf;fill-opacity:1;stroke:#0000cf;stroke-width:0.226331;stroke-linecap:square;stroke-miterlimit:4;stroke-dasharray:none;stroke-opacity:1"
           inkscape:transform-center-x="14.040384"
           inkscape:transform-center-y="6.7198212"
           d="m -41.611223,129.18431 v 7.79823 l 15.773489,-7.71974 -0.06791,-7.87655 z"
           id="sign2"
           inkscape:connector-curvature="0"
           sodipodi:nodetypes="ccccc"
           inkscape:label="sign2" />
        <path
           style="fill:#0000cf;fill-opacity:1;stroke:#0000cf;stroke-width:0.226331;stroke-linecap:square;stroke-miterlimit:4;stroke-dasharray:none;stroke-opacity:1"
           inkscape:transform-center-x="14.040384"
           inkscape:transform-center-y="6.7198212"
           d="m -41.611223,156.17457 v 7.79823 l 15.773489,-7.71974 -0.06791,-7.87655 z"
           id="sign4"
           inkscape:connector-curvature="0"
           sodipodi:nodetypes="ccccc"
           inkscape:label="sign4" />
      </g>
      <path
         d="m 45.3606,255.78909 h 4.2655 c 4.7039,0 8.5309,3.8269 8.5309,8.5309 v 6.5372 c 0,4.7039 -3.8269,8.5309 -8.5309,8.5309 h -17.062 l -7.57313,2.54922 c 0,1.5946 -0.5581,3.1891 -1.5946,4.385 L 22.918,286.8804 h 26.709 c 8.8498,0 16.025,-7.1755 16.025,-16.025 v -6.5377 c 0,-4.9431 -2.2324,-9.3282 -5.7404,-12.278 3.508,-2.9499 5.7404,-7.335 5.7404,-12.278 v 0.001 -6.5377 c 0,-8.8498 -7.1755,-16.105 -16.025,-16.105 H 22.918 l 0.47837,0.63782 c 1.0365,1.1959 1.5946,2.7905 1.5946,4.385 l 7.57313,2.55178 h 17.062 c 4.7039,0 8.5309,3.8269 8.5309,8.5309 v 6.5372 c 0,4.7039 -3.8269,8.5309 -8.5309,8.5309 h -4.2655"
         style="font-variant-ligatures:normal;font-variant-caps:normal;font-variant-numeric:normal;font-variant-east-asian:normal"
         id="path101"
         sodipodi:nodetypes="cssssccccssscccssccccssssc" />
    </g>
  </g>
</svg>
