<svg xmlns="http://www.w3.org/2000/svg" width="158" height="158"><g stroke-width=".265" style="font-variant-ligatures:normal;font-variant-caps:normal;font-variant-numeric:normal;font-variant-east-asian:normal" aria-label="Barberos"><path style="font-style:normal;font-variant:normal;font-weight:400;font-stretch:normal;font-size:22.5778px;line-height:1.25;font-family:'JetBrains Mono';-inkscape-font-specification:'JetBrains Mono';letter-spacing:0;word-spacing:0;fill:#000;fill-opacity:1;stroke:none;stroke-width:.825697" d="M-37.724 177.69c-2.623 0-4.912-.497-6.867-1.49-1.911-.943-3.356-2.358-4.333-4.244-.978-1.837-1.356-4.046-1.134-6.628l1-12.213c.223-2.63-.11-4.517-1-5.66-.889-1.19-2.778-1.786-5.666-1.786v-5.958s4.777-.57 5.666-1.713c.89-1.191 1.223-3.102 1-5.734l-1-12.212c-.222-2.632.156-4.866 1.134-6.703.977-1.836 2.422-3.227 4.333-4.17 1.955-.993 4.244-1.49 6.867-1.49h3v5.958h-3c-2.09 0-3.712.546-4.867 1.639-1.156 1.042-1.645 2.63-1.467 4.766l1 12.212c.267 3.227-.4 5.76-2 7.596-1.6 1.787-3.822 2.68-6.666 2.68v-.371c2.8 0 5 1.017 6.6 3.053 1.644 2.035 2.333 4.666 2.066 7.893l-1 12.213c-.177 2.135.311 3.724 1.467 4.766 1.155 1.092 2.778 1.638 4.867 1.638h3v5.958zM-29.724 177.69c2.622 0 4.91-.497 6.866-1.49 1.911-.943 3.356-2.358 4.334-4.244.977-1.837 1.355-4.046 1.133-6.628l-1-12.213c-.222-2.63.111-4.517 1-5.66.889-1.19 2.778-1.786 5.667-1.786v-5.958s-4.778-.57-5.667-1.713c-.889-1.191-1.222-3.102-1-5.734l1-12.212c.222-2.632-.156-4.866-1.133-6.703-.978-1.836-2.423-3.227-4.334-4.17-1.955-.993-4.244-1.49-6.866-1.49h-3v5.958h3c2.089 0 3.71.546 4.866 1.639 1.156 1.042 1.645 2.63 1.467 4.766l-1 12.212c-.267 3.227.4 5.76 2 7.596 1.6 1.787 3.822 2.68 6.667 2.68v-.371c-2.8 0-5 1.017-6.6 3.053-1.645 2.035-2.334 4.666-2.067 7.893l1 12.213c.178 2.135-.311 3.724-1.467 4.766-1.155 1.092-2.777 1.638-4.866 1.638h-3v5.958z" transform="matrix(1.67378 0 0 1.71129 110.99 -164.9)"/><path style="fill:#cf0000;fill-opacity:1;stroke:#cf0000;stroke-width:.222797;stroke-linecap:square;stroke-miterlimit:4;stroke-dasharray:none;stroke-opacity:1" d="M-25.833 169.557v-7.688l-15.503 7.61zM-41.613 115.802v7.688l15.504-7.61z" transform="matrix(1.67378 0 0 1.71129 110.99 -164.9)"/><path style="fill:#cf0000;fill-opacity:1;stroke:#cf0000;stroke-width:.226331;stroke-linecap:square;stroke-miterlimit:4;stroke-dasharray:none;stroke-opacity:1" d="M-41.611 142.68v7.798l15.773-7.72-.068-7.877z" transform="matrix(1.67378 0 0 1.71129 110.99 -164.9)"/><path style="fill:#0000cf;fill-opacity:1;stroke:#0000cf;stroke-width:.226331;stroke-linecap:square;stroke-miterlimit:4;stroke-dasharray:none;stroke-opacity:1" d="M-41.611 129.184v7.799l15.773-7.72-.068-7.877zM-41.611 156.175v7.798l15.773-7.72-.068-7.876z" transform="matrix(1.67378 0 0 1.71129 110.99 -164.9)"/><path d="M45.36 255.79h4.266c4.704 0 8.531 3.826 8.531 8.53v6.537c0 4.704-3.827 8.531-8.53 8.531H32.563l-7.573 2.55c0 1.594-.558 3.188-1.595 4.384l-.478.558h26.709c8.85 0 16.025-7.175 16.025-16.025v-6.537c0-4.943-2.232-9.328-5.74-12.278 3.508-2.95 5.74-7.335 5.74-12.278v-6.537c0-8.85-7.176-16.105-16.025-16.105H22.918l.478.638c1.037 1.196 1.595 2.79 1.595 4.385l7.573 2.552h17.062c4.704 0 8.531 3.827 8.531 8.53v6.538c0 4.704-3.827 8.53-8.53 8.53H45.36" style="font-variant-ligatures:normal;font-variant-caps:normal;font-variant-numeric:normal;font-variant-east-asian:normal" transform="matrix(2.25594 0 0 2.25674 -7.826 -489.416)"/></g></svg>