<?xml version="1.0" encoding="UTF-8" standalone="no"?>
<svg
   xmlns:dc="http://purl.org/dc/elements/1.1/"
   xmlns:cc="http://creativecommons.org/ns#"
   xmlns:rdf="http://www.w3.org/1999/02/22-rdf-syntax-ns#"
   xmlns:svg="http://www.w3.org/2000/svg"
   xmlns="http://www.w3.org/2000/svg"
   xmlns:sodipodi="http://sodipodi.sourceforge.net/DTD/sodipodi-0.dtd"
   xmlns:inkscape="http://www.inkscape.org/namespaces/inkscape"
   version="1.1"
   viewBox="0 0 512 158"
   id="svg121"
   sodipodi:docname="barberos-final.svg"
   inkscape:version="1.0.1 (c497b03c, 2020-09-10)"
   width="512"
   height="158"
   inkscape:export-filename="/Users/loic/Documents/Projet freelance/Logo/barberos-final.png"
   inkscape:export-xdpi="96"
   inkscape:export-ydpi="96">
  <defs
     id="defs125" />
  <sodipodi:namedview
     pagecolor="#ffffff"
     bordercolor="#666666"
     borderopacity="1"
     objecttolerance="10"
     gridtolerance="10"
     guidetolerance="10"
     inkscape:pageopacity="0"
     inkscape:pageshadow="2"
     inkscape:window-width="1680"
     inkscape:window-height="1050"
     id="namedview123"
     showgrid="false"
     inkscape:zoom="1.8015811"
     inkscape:cx="256"
     inkscape:cy="90"
     inkscape:window-x="0"
     inkscape:window-y="0"
     inkscape:window-maximized="0"
     inkscape:current-layer="g119"
     inkscape:document-rotation="0" />
  <metadata
     id="metadata99">
    <rdf:RDF>
      <cc:Work
         rdf:about="">
        <dc:format>image/svg+xml</dc:format>
        <dc:type
           rdf:resource="http://purl.org/dc/dcmitype/StillImage" />
        <dc:title></dc:title>
      </cc:Work>
    </rdf:RDF>
  </metadata>
  <g
     transform="translate(0,-207)"
     id="g119">
    <g
       transform="matrix(2.2559381,0,0,2.25674,-25.545011,-282.41637)"
       stroke-width="0.26458"
       style="font-variant-ligatures:normal;font-variant-caps:normal;font-variant-numeric:normal;font-variant-east-asian:normal"
       aria-label="Barberos"
       id="g117">
      <g
         id="g935"
         transform="matrix(0.74194577,0,0,0.75829961,52.667925,143.79852)"
         inkscape:label="group1">
        <path
           inkscape:connector-curvature="0"
           id="left_brace"
           style="font-style:normal;font-variant:normal;font-weight:normal;font-stretch:normal;font-size:22.5778px;line-height:1.25;font-family:'JetBrains Mono';-inkscape-font-specification:'JetBrains Mono';letter-spacing:0px;word-spacing:0px;fill:#000000;fill-opacity:1;stroke:none;stroke-width:0.825697"
           d="m -37.724374,177.68988 c -2.62224,0 -4.91113,-0.49646 -6.86668,-1.48938 -1.9111,-0.94327 -3.35555,-2.35816 -4.33334,-4.24467 -0.97778,-1.83688 -1.35555,-4.0461 -1.13333,-6.62766 l 1,-12.21276 c 0.22223,-2.63121 -0.1111,-4.51774 -1,-5.65958 -0.8889,-1.19149 -2.77778,-1.78724 -5.66666,-1.78724 v 0 -5.95744 0 c 0,0 4.77776,-0.57092 5.66666,-1.71276 0.8889,-1.19149 1.22223,-3.10284 1,-5.73405 l -1,-12.21276 c -0.22222,-2.63121 0.15555,-4.86525 1.13333,-6.70213 0.97779,-1.83688 2.42224,-3.22695 4.33334,-4.17021 1.95555,-0.99291 4.24444,-1.48936 6.86668,-1.48936 h 2.99999 v 5.95745 h -2.99999 c -2.0889,0 -3.71113,0.5461 -4.86668,1.6383 -1.15556,1.04255 -1.64445,2.6312 -1.46668,4.76595 l 1,12.21276 c 0.26668,3.22695 -0.39998,5.75887 -1.99998,7.59575 -1.6,1.78723 -3.82222,2.68084 -6.66666,2.68084 v -0.37233 c 2.79998,0 4.99998,1.01773 6.59998,3.05318 1.64445,2.03547 2.33334,4.66668 2.06666,7.89363 l -1,12.21276 c -0.17773,2.13475 0.31116,3.7234 1.46668,4.76594 1.15555,1.09219 2.77778,1.63829 4.86668,1.63829 h 2.99999 v 5.95748 z"
           inkscape:label="left_brace"
           sodipodi:nodetypes="scccccsccscccscsccsccccccccccsccs" />
        <path
           inkscape:connector-curvature="0"
           id="right_brace"
           style="font-style:normal;font-variant:normal;font-weight:normal;font-stretch:normal;font-size:22.5778px;line-height:1.25;font-family:'JetBrains Mono';-inkscape-font-specification:'JetBrains Mono';letter-spacing:0px;word-spacing:0px;fill:#000000;fill-opacity:1;stroke:none;stroke-width:0.825697"
           d="m -29.724394,177.68988 c 2.62224,0 4.91113,-0.49646 6.86668,-1.48938 1.9111,-0.94327 3.35555,-2.35816 4.33334,-4.24467 0.97778,-1.83688 1.35555,-4.0461 1.13333,-6.62766 l -1,-12.21276 c -0.22223,-2.63121 0.1111,-4.51774 1,-5.65958 0.8889,-1.19149 2.77778,-1.78724 5.66666,-1.78724 v 0 -5.95744 0 c 0,0 -4.77776,-0.57092 -5.66666,-1.71276 -0.8889,-1.19149 -1.22223,-3.10284 -1,-5.73405 l 1,-12.21276 c 0.22222,-2.63121 -0.15555,-4.86525 -1.13333,-6.70213 -0.97779,-1.83688 -2.42224,-3.22695 -4.33334,-4.17021 -1.95555,-0.99291 -4.24444,-1.48936 -6.86668,-1.48936 h -2.99999 v 5.95745 h 2.99999 c 2.0889,0 3.71113,0.5461 4.86668,1.6383 1.15556,1.04255 1.64445,2.6312 1.46668,4.76595 l -1,12.21276 c -0.26668,3.22695 0.39998,5.75887 1.99998,7.59575 1.6,1.78723 3.82222,2.68084 6.66666,2.68084 v -0.37233 c -2.79998,0 -4.99998,1.01773 -6.59998,3.05318 -1.64445,2.03547 -2.33334,4.66668 -2.06666,7.89363 l 1,12.21276 c 0.17773,2.13475 -0.31116,3.7234 -1.46668,4.76594 -1.15555,1.09219 -2.77778,1.63829 -4.86668,1.63829 h -2.99999 v 5.95748 z"
           inkscape:label="right_brace"
           sodipodi:nodetypes="scccccsccscccscsccsccccccccccsccs" />
        <path
           style="fill:#cf0000;fill-opacity:1;stroke:#cf0000;stroke-width:0.222797;stroke-linecap:square;stroke-miterlimit:4;stroke-dasharray:none;stroke-opacity:1"
           inkscape:transform-center-x="-13.800385"
           inkscape:transform-center-y="-6.6248513"
           d="m -25.832507,169.5567 v -7.68804 l -15.503874,7.61066 z"
           id="sign5"
           inkscape:connector-curvature="0"
           sodipodi:nodetypes="cccc"
           inkscape:label="sign5" />
        <path
           style="fill:#cf0000;fill-opacity:1;stroke:#cf0000;stroke-width:0.222797;stroke-linecap:square;stroke-miterlimit:4;stroke-dasharray:none;stroke-opacity:1"
           inkscape:transform-center-x="13.800382"
           inkscape:transform-center-y="6.624848"
           d="m -41.612991,115.80198 v 7.68803 l 15.503874,-7.61066 z"
           id="sign1"
           inkscape:connector-curvature="0"
           sodipodi:nodetypes="cccc"
           inkscape:label="sign1" />
        <path
           style="fill:#cf0000;fill-opacity:1;stroke:#cf0000;stroke-width:0.226331;stroke-linecap:square;stroke-miterlimit:4;stroke-dasharray:none;stroke-opacity:1"
           inkscape:transform-center-x="14.040384"
           inkscape:transform-center-y="6.7198212"
           d="m -41.611223,142.67944 v 7.79823 l 15.773489,-7.71974 -0.06791,-7.87655 z"
           id="sign3"
           inkscape:connector-curvature="0"
           sodipodi:nodetypes="ccccc"
           inkscape:label="sign3" />
        <path
           style="fill:#0000cf;fill-opacity:1;stroke:#0000cf;stroke-width:0.226331;stroke-linecap:square;stroke-miterlimit:4;stroke-dasharray:none;stroke-opacity:1"
           inkscape:transform-center-x="14.040384"
           inkscape:transform-center-y="6.7198212"
           d="m -41.611223,129.18431 v 7.79823 l 15.773489,-7.71974 -0.06791,-7.87655 z"
           id="sign2"
           inkscape:connector-curvature="0"
           sodipodi:nodetypes="ccccc"
           inkscape:label="sign2" />
        <path
           style="fill:#0000cf;fill-opacity:1;stroke:#0000cf;stroke-width:0.226331;stroke-linecap:square;stroke-miterlimit:4;stroke-dasharray:none;stroke-opacity:1"
           inkscape:transform-center-x="14.040384"
           inkscape:transform-center-y="6.7198212"
           d="m -41.611223,156.17457 v 7.79823 l 15.773489,-7.71974 -0.06791,-7.87655 z"
           id="sign4"
           inkscape:connector-curvature="0"
           sodipodi:nodetypes="ccccc"
           inkscape:label="sign4" />
      </g>
      <path
         d="m 45.3606,255.78909 h 4.2655 c 4.7039,0 8.5309,3.8269 8.5309,8.5309 v 6.5372 c 0,4.7039 -3.8269,8.5309 -8.5309,8.5309 h -17.062 l -7.57313,2.54922 c 0,1.5946 -0.5581,3.1891 -1.5946,4.385 L 22.918,286.8804 h 26.709 c 8.8498,0 16.025,-7.1755 16.025,-16.025 v -6.5377 c 0,-4.9431 -2.2324,-9.3282 -5.7404,-12.278 3.508,-2.9499 5.7404,-7.335 5.7404,-12.278 v 0.001 -6.5377 c 0,-8.8498 -7.1755,-16.105 -16.025,-16.105 H 22.918 l 0.47837,0.63782 c 1.0365,1.1959 1.5946,2.7905 1.5946,4.385 l 7.57313,2.55178 h 17.062 c 4.7039,0 8.5309,3.8269 8.5309,8.5309 v 6.5372 c 0,4.7039 -3.8269,8.5309 -8.5309,8.5309 h -4.2655"
         style="font-variant-ligatures:normal;font-variant-caps:normal;font-variant-numeric:normal;font-variant-east-asian:normal"
         id="path101"
         sodipodi:nodetypes="cssssccccssscccssccccssssc" />
      <path
         d="m 76.625,277.69 4.699,-18.5 4.699,18.5 z m -2.413,-8.9747 c 0.04233,-0.21166 0.21167,-0.29633 0.381,-0.254 0.16933,0.0423 0.254,0.254 0.21167,0.46567 -0.04233,0.16933 -0.21167,0.29633 -0.381,0.254 -0.16933,-0.0847 -0.29633,-0.29633 -0.21167,-0.46567 z m 13.885,-0.254 c 0.16933,-0.0423 0.33867,0.0423 0.381,0.254 0.04233,0.16934 -0.04233,0.381 -0.21167,0.46567 -0.16933,0.0423 -0.33867,-0.0847 -0.381,-0.254 -0.04233,-0.21167 0.04233,-0.42333 0.21167,-0.46567 z m 3.9793,17.103 -3.048,-11.98 c -0.21167,-2.1167 -0.21167,-3.556 0.16933,-5.1223 -1.0583,-1.0583 -1.7357,-2.286 -2.54,-4.191 l -3.3867,-13.377 0.71967,-1.0583 h -5.2917 l 0.71967,1.0583 -3.3867,13.377 c -0.80433,1.905 -1.4817,3.1327 -2.54,4.191 0.381,1.5663 0.381,3.0057 0.16933,5.1223 l -3.048,11.98 -0.93133,1.3123 h 5.6303 l -0.67733,-1.3123 0.889,-3.5137 h 11.642 l 0.889,3.5137 -0.67733,1.3123 h 5.6303 z"
         id="path103" />
      <path
         d="m 100.91,266.39 v -12.531 h 6.477 c 2.54,0 4.572,2.032 4.572,4.5297 v 3.4713 c 0,2.4553 -1.9897,4.4873 -4.445,4.5297 h -3.302 z m -4.5297,2.3707 c -0.21167,0 -0.381,-0.16934 -0.381,-0.381 0,-0.21167 0.16933,-0.381 0.381,-0.381 0.21167,0 0.381,0.16933 0.381,0.381 0,0.21166 -0.16933,0.381 -0.381,0.381 z m 19.939,15.96 -6.3077,-14.774 c 0.67733,-0.21167 1.3547,-0.508 1.9473,-0.889 2.3707,-1.4817 3.9793,-4.1487 3.9793,-7.1967 v -3.4713 c 0,-3.048 -1.6087,-5.715 -3.9793,-7.1967 -1.3123,-0.84667 -2.8787,-1.3123 -4.572,-1.3123 h -11.599 l 0.254,0.29634 c 0.55033,0.635 0.84667,1.4817 0.84667,2.3283 v 10.541 c -0.381,2.3707 -0.762,3.8523 -1.7357,5.334 0.97367,1.524 1.3547,3.0057 1.7357,5.3763 v 11.811 l -1.1007,1.3123 h 5.7997 l -0.16933,-0.21167 c -0.33867,-0.59266 -0.508,-1.27 -0.508,-1.9473 v -14.351 h 4.9953 l 6.985,16.51 h 5.588 z"
         id="path105" />
      <path
         d="m 139.96,261.86 c 0,2.4977 -2.032,4.5297 -4.5297,4.5297 h -9.0593 v -12.531 h 9.0593 c 2.4977,0 4.5297,2.032 4.5297,4.5297 z m 0,16.51 c 0,2.4977 -2.032,4.5297 -4.5297,4.5297 h -9.0593 v -12.531 h 9.0593 c 2.4977,0 4.5297,2.032 4.5297,4.5297 z m -18.119,-9.6097 c -0.21166,0 -0.381,-0.16934 -0.381,-0.381 0,-0.21167 0.16934,-0.381 0.381,-0.381 0.21167,0 0.381,0.16933 0.381,0.381 0,0.21166 -0.16933,0.381 -0.381,0.381 z m 22.098,-6.9003 v -3.4713 c 0,-4.699 -3.81,-8.5513 -8.509,-8.5513 h -14.182 l 0.254,0.33867 c 0.55033,0.635 0.84666,1.4817 0.84666,2.3283 v 10.499 c -0.381,2.3707 -0.762,3.8523 -1.7357,5.3763 0.97366,1.524 1.3547,3.0057 1.7357,5.3763 v 10.499 c 0,0.84666 -0.29633,1.6933 -0.84666,2.3283 l -0.254,0.29633 h 14.182 c 4.699,0 8.509,-3.81 8.509,-8.509 v -3.4713 c 0,-2.6247 -1.1853,-4.953 -3.048,-6.5193 1.8627,-1.5663 3.048,-3.8947 3.048,-6.5193 z"
         id="path107" />
      <path
         d="m 147.31,268.76 c -0.21167,0 -0.381,-0.16934 -0.381,-0.381 0,-0.21167 0.16933,-0.381 0.381,-0.381 0.21167,0 0.381,0.16933 0.381,0.381 0,0.21166 -0.16933,0.381 -0.381,0.381 z m 4.5297,14.139 v -12.531 h 8.128 l -1.524,-3.9793 h -6.604 v -12.531 h 10.075 l -1.3123,-4.0217 h -13.885 l 0.254,0.29633 c 0.55034,0.67734 0.84667,1.524 0.84667,2.3707 v 10.499 c -0.381,2.3707 -0.762,3.8523 -1.7357,5.3763 0.97367,1.4817 1.3547,3.0057 1.7357,5.3763 v 10.499 c 0,0.84666 -0.29633,1.6933 -0.84667,2.3283 l -0.254,0.29633 h 15.198 l -1.3123,-3.9793 z"
         id="path109" />
      <path
         d="m 169.86,266.39 v -12.531 h 6.477 c 2.54,0 4.572,2.032 4.572,4.5297 v 3.4713 c 0,2.4553 -1.9897,4.4873 -4.445,4.5297 h -3.302 z m -4.5297,2.3707 c -0.21166,0 -0.381,-0.16934 -0.381,-0.381 0,-0.21167 0.16934,-0.381 0.381,-0.381 0.21167,0 0.381,0.16933 0.381,0.381 0,0.21166 -0.16933,0.381 -0.381,0.381 z m 19.939,15.96 -6.3077,-14.774 c 0.67733,-0.21167 1.3547,-0.508 1.9473,-0.889 2.3707,-1.4817 3.9793,-4.1487 3.9793,-7.1967 v -3.4713 c 0,-3.048 -1.6087,-5.715 -3.9793,-7.1967 -1.3123,-0.84667 -2.8787,-1.3123 -4.572,-1.3123 h -11.599 l 0.254,0.29634 c 0.55033,0.635 0.84666,1.4817 0.84666,2.3283 v 10.541 c -0.381,2.3707 -0.762,3.8523 -1.7357,5.334 0.97366,1.524 1.3547,3.0057 1.7357,5.3763 v 11.811 l -1.1007,1.3123 h 5.7997 l -0.16933,-0.21167 c -0.33867,-0.59266 -0.508,-1.27 -0.508,-1.9473 v -14.351 h 4.9953 l 6.985,16.51 h 5.588 z"
         id="path111" />
      <path
         d="m 211.67,268.76 c -0.21167,0 -0.381,-0.16934 -0.381,-0.381 0,-0.21167 0.16933,-0.381 0.381,-0.381 0.21166,0 0.381,0.16933 0.381,0.381 0,0.21166 -0.16934,0.381 -0.381,0.381 z m -4.5297,9.4827 c 0,2.54 -2.0743,4.6143 -4.6567,4.6143 h -2.4977 c -2.5823,0 -4.6567,-2.0743 -4.6567,-4.6143 v -19.727 c 0,-2.54 2.0743,-4.6143 4.6567,-4.6143 h 2.4977 c 2.5823,0 4.6567,2.0743 4.6567,4.6143 z m -16.341,-9.4827 c -0.21167,0 -0.381,-0.16934 -0.381,-0.381 0,-0.21167 0.16933,-0.381 0.381,-0.381 0.21167,0 0.381,0.16933 0.381,0.381 0,0.21166 -0.16933,0.381 -0.381,0.381 z m 20.362,-5.7573 v -4.4873 c 0,-4.7837 -3.8947,-8.6783 -8.6783,-8.6783 h -2.54 v 0.0423 c -4.7413,0 -8.636,3.8947 -8.636,8.636 v 4.4873 c -0.381,2.3707 -0.762,3.8523 -1.7357,5.3763 0.97367,1.524 1.3547,3.0057 1.7357,5.3763 v 4.4873 c 0,4.7413 3.8523,8.636 8.636,8.636 h 2.54 c 4.7837,0 8.6783,-3.8523 8.6783,-8.636 v -4.4873 c 0.381,-2.3707 0.762,-3.8523 1.7357,-5.3763 -0.97366,-1.524 -1.3547,-3.0057 -1.7357,-5.3763 z"
         id="path113" />
      <path
         d="m 225.58,270.71 c -0.127,0.16933 -0.33867,0.21167 -0.508,0.0847 -0.16933,-0.127 -0.254,-0.33867 -0.127,-0.508 0.127,-0.16934 0.33867,-0.21167 0.508,-0.127 0.16933,0.127 0.21167,0.33866 0.127,0.55033 z m 2.159,-4.6567 c 0.127,-0.16934 0.33867,-0.21167 0.508,-0.0847 0.16933,0.127 0.21167,0.33867 0.127,0.508 -0.127,0.16933 -0.381,0.21167 -0.55033,0.127 -0.16934,-0.127 -0.21167,-0.33867 -0.0847,-0.55033 z m 6.731,5.08 -2.2013,-1.4817 c -1.778,-1.651 -2.8363,-2.7517 -3.5137,-4.4027 -1.8203,0 -3.2597,-0.508 -5.461,-1.524 l -2.2437,-1.4393 c -1.27,-0.84666 -2.032,-2.2437 -2.032,-3.7677 0,-2.54 2.1167,-4.6143 4.6567,-4.6143 h 5.9267 c 2.032,0 3.81,1.3123 4.4027,3.1327 l -0.762,0.80434 h 4.9953 c -0.33867,-4.445 -4.064,-8.001 -8.636,-8.001 h -5.9267 c -4.7837,0 -8.636,3.8947 -8.636,8.6783 0,2.8787 1.397,5.5457 3.81,7.112 l 2.2013,1.4393 c 1.778,1.6933 2.794,2.794 3.5137,4.445 1.8203,0 3.2597,0.508 5.461,1.524 l 2.2437,1.4393 c 1.2277,0.84667 1.9897,2.2437 1.9897,3.7677 0,2.54 -2.0743,4.6143 -4.6567,4.6143 h -5.9267 c -1.9897,0 -3.7253,-1.27 -4.3603,-3.0903 l 0.80434,-0.889 h -5.08 c 0.33867,4.4873 4.1063,8.001 8.636,8.001 h 5.9267 c 4.7837,0 8.6783,-3.8523 8.6783,-8.636 0,-2.8787 -1.4393,-5.5457 -3.81,-7.112 z"
         id="path115" />
    </g>
  </g>
</svg>
