<svg xmlns="http://www.w3.org/2000/svg" width="512" height="512"><path d="M256 35.104c-89.99 0-163.2 73.21-163.2 163.2 0 29.626 13.286 61.488 13.843 62.832 4.291 10.186 12.759 26.006 18.864 35.28l111.898 169.546c4.579 6.95 11.357 10.934 18.595 10.934 7.238 0 14.016-3.984 18.595-10.925l111.907-169.555c6.116-9.274 14.573-25.094 18.864-35.28.557-1.334 13.834-33.197 13.834-62.832 0-89.99-73.21-163.2-163.2-163.2zm131.664 218.582c-3.83 9.13-11.712 23.847-17.194 32.16L258.563 455.402c-2.208 3.35-2.909 3.35-5.117 0L141.54 285.846c-5.481-8.313-13.363-23.04-17.193-32.17-.164-.393-12.346-29.72-12.346-55.372 0-79.402 64.598-144 144-144s144 64.598 144 144c0 25.69-12.211 55.094-12.336 55.382z" style="stroke-width:1.2;fill:#0000cf;fill-opacity:1;stroke:none"/><path d="M256 111.914c-47.645 0-86.4 38.764-86.4 86.4 0 47.635 38.755 86.4 86.4 86.4s86.4-38.765 86.4-86.4c0-47.636-38.755-86.4-86.4-86.4zm0 153.6c-37.046 0-67.2-30.144-67.2-67.2 0-37.056 30.154-67.2 67.2-67.2 37.046 0 67.2 30.144 67.2 67.2 0 37.056-30.154 67.2-67.2 67.2z" style="stroke-width:1.2;fill:#cf0000;fill-opacity:1"/></svg>