<svg height="512" viewBox="0 0 64 64" width="512" xmlns="http://www.w3.org/2000/svg"><linearGradient id="a" gradientUnits="userSpaceOnUse" x1="32" x2="32" y1="63" y2="1"><stop offset="0" stop-color="#cf0000"/><stop offset="1" stop-color="#0000cf"/></linearGradient><path d="M15 11.295A6.956 6.956 0 0 0 13 11c-3.859 0-7 3.14-7 7a6.985 6.985 0 0 0 2.696 5.509C4.24 24.915 1 29.086 1 34v7c0 2.206 1.794 4 4 4h1v14c0 2.206 1.794 4 4 4a3.974 3.974 0 0 0 3-1.382A3.974 3.974 0 0 0 16 63c2.206 0 4-1.794 4-4V34.265c0-.433.056-.857.162-1.265H63V1H15zM8 18c0-2.757 2.243-5 5-5s5 2.243 5 5-2.243 5-5 5-5-2.243-5-5zm5.965 14.621-.965.965-.965-.965L12.67 25h.66zM18 34.265V59c0 1.103-.897 2-2 2s-2-.897-2-2V41h-2v18c0 1.103-.897 2-2 2s-2-.897-2-2V32H6v11H5c-1.103 0-2-.897-2-2v-7c0-4.504 3.329-8.235 7.654-8.888l-.69 8.267L13 36.414l3.035-3.035L15.336 25h2.965a6.99 6.99 0 0 0 3.669-1.039l10.99-6.763a1.34 1.34 0 0 1 2.04 1.14v.39c0 .456-.229.875-.611 1.124l-13.192 8.536A6.973 6.973 0 0 0 18 34.265zM29 17c0-5.177 3.954-9.446 9-9.949v10.363l7.324 7.324A9.954 9.954 0 0 1 39 27a9.921 9.921 0 0 1-7.216-3.081l3.691-2.388A3.327 3.327 0 0 0 37 18.728v-.39a3.342 3.342 0 0 0-5.088-2.843l-2.9 1.784C29.01 17.186 29 17.093 29 17zm17.738 6.324L41.414 18h7.535a9.95 9.95 0 0 1-2.211 5.324zM40 16V7.051c4.717.471 8.479 4.232 8.949 8.949zM61 3v28H21.22a5.013 5.013 0 0 1 1.063-.934l7.807-5.052A11.9 11.9 0 0 0 39 29c6.617 0 12-5.383 12-12S45.617 5 39 5s-12 5.383-12 12c0 .487.04.974.099 1.457l-6.177 3.801a4.987 4.987 0 0 1-2.62.742h-.412A6.977 6.977 0 0 0 20 18a6.99 6.99 0 0 0-3-5.736V3zm-5.025 44.755A6.997 6.997 0 0 0 59 42c0-3.859-3.141-7-7-7s-7 3.141-7 7c0 2.383 1.2 4.49 3.025 5.755A11.048 11.048 0 0 0 42 53.444a11.045 11.045 0 0 0-6.025-5.689A6.997 6.997 0 0 0 39 42c0-3.859-3.141-7-7-7s-7 3.141-7 7c0 2.383 1.2 4.49 3.025 5.755C23.921 49.353 21 53.337 21 58v5h42v-5c0-4.663-2.921-8.647-7.025-10.245zM47 42c0-2.757 2.243-5 5-5s5 2.243 5 5-2.243 5-5 5-5-2.243-5-5zm-20 0c0-2.757 2.243-5 5-5s5 2.243 5 5-2.243 5-5 5-5-2.243-5-5zm14 19h-3v-8h-2v8h-8v-8h-2v8h-3v-3c0-4.963 4.037-9 9-9s9 4.037 9 9zm20 0h-3v-8h-2v8h-8v-8h-2v8h-3v-3c0-4.963 4.037-9 9-9s9 4.037 9 9zm-5-38h-5v3c0 1.654 1.346 3 3 3h2c1.654 0 3-1.346 3-3s-1.346-3-3-3zm0 4h-2c-.552 0-1-.449-1-1v-1h3a1.001 1.001 0 0 1 0 2zM22 11h5V8c0-1.654-1.346-3-3-3h-2c-1.654 0-3 1.346-3 3s1.346 3 3 3zm0-4h2c.552 0 1 .449 1 1v1h-3a1.001 1.001 0 0 1 0-2zm37 0h-6V5h6zm0 4h-6V9h6zm0 4h-6v-2h6zm0 4h-6v-2h6z" fill="url(#a)"/></svg>